<svg width="53" height="32" viewBox="0 0 53 32" fill="none" xmlns="http://www.w3.org/2000/svg">
<path d="M0.816 10V1.48H4.344C5.392 1.48 6.212 1.736 6.804 2.248C7.404 2.752 7.704 3.444 7.704 4.324C7.704 4.908 7.568 5.416 7.296 5.848C7.032 6.272 6.648 6.6 6.144 6.832C5.64 7.064 5.04 7.18 4.344 7.18H2.904V10H0.816ZM2.904 5.464H4.2C4.624 5.464 4.956 5.368 5.196 5.176C5.444 4.984 5.568 4.7 5.568 4.324C5.568 3.956 5.448 3.676 5.208 3.484C4.968 3.284 4.632 3.184 4.2 3.184H2.904V5.464ZM10.7005 10C10.1245 10 9.67653 9.856 9.35653 9.568C9.03653 9.28 8.87653 8.812 8.87653 8.164V1.48H10.9405V7.936C10.9405 8.144 10.9885 8.292 11.0845 8.38C11.1805 8.468 11.3165 8.512 11.4925 8.512H11.8885V10H10.7005ZM14.7589 10.144C14.0869 10.144 13.5349 9.988 13.1029 9.676C12.6709 9.364 12.4549 8.932 12.4549 8.38C12.4549 7.812 12.6389 7.372 13.0069 7.06C13.3749 6.748 13.9109 6.52 14.6149 6.376L16.6189 5.968C16.6189 5.592 16.5349 5.308 16.3669 5.116C16.2069 4.916 15.9749 4.816 15.6709 4.816C15.3669 4.816 15.1269 4.892 14.9509 5.044C14.7829 5.188 14.6749 5.396 14.6269 5.668L12.5629 5.596C12.6909 4.852 13.0229 4.3 13.5589 3.94C14.0949 3.58 14.7989 3.4 15.6709 3.4C16.6789 3.4 17.4309 3.628 17.9269 4.084C18.4309 4.54 18.6829 5.22 18.6829 6.124V8.164C18.6829 8.364 18.7149 8.496 18.7789 8.56C18.8509 8.624 18.9469 8.656 19.0669 8.656H19.2229V10C19.1589 10.024 19.0549 10.044 18.9109 10.06C18.7669 10.076 18.6269 10.084 18.4909 10.084C18.2429 10.084 18.0029 10.044 17.7709 9.964C17.5389 9.876 17.3469 9.724 17.1949 9.508C17.0429 9.284 16.9669 8.964 16.9669 8.548L17.1229 8.704C17.0429 8.992 16.8989 9.248 16.6909 9.472C16.4909 9.688 16.2309 9.856 15.9109 9.976C15.5909 10.088 15.2069 10.144 14.7589 10.144ZM15.2989 8.8C15.5549 8.8 15.7829 8.748 15.9829 8.644C16.1829 8.54 16.3389 8.388 16.4509 8.188C16.5629 7.988 16.6189 7.74 16.6189 7.444V7.18L15.3709 7.468C15.1229 7.524 14.9269 7.612 14.7829 7.732C14.6469 7.844 14.5789 7.996 14.5789 8.188C14.5789 8.38 14.6389 8.532 14.7589 8.644C14.8789 8.748 15.0589 8.8 15.2989 8.8ZM20.1031 10V3.544H21.9511L22.0351 5.524L21.7831 5.476C21.8391 4.964 21.9631 4.556 22.1551 4.252C22.3551 3.948 22.6031 3.732 22.8991 3.604C23.1951 3.468 23.5231 3.4 23.8831 3.4C24.3391 3.4 24.7311 3.5 25.0591 3.7C25.3951 3.892 25.6511 4.172 25.8271 4.54C26.0031 4.9 26.0911 5.336 26.0911 5.848V10H24.0271V6.556C24.0271 6.228 24.0031 5.948 23.9551 5.716C23.9071 5.484 23.8191 5.308 23.6911 5.188C23.5711 5.068 23.3951 5.008 23.1631 5.008C22.8271 5.008 22.5751 5.144 22.4071 5.416C22.2471 5.68 22.1671 6.06 22.1671 6.556V10H20.1031ZM27.3922 10V3.544H29.2402L29.3242 5.524L29.0722 5.476C29.1282 4.964 29.2522 4.556 29.4442 4.252C29.6442 3.948 29.8922 3.732 30.1882 3.604C30.4842 3.468 30.8122 3.4 31.1722 3.4C31.6282 3.4 32.0202 3.5 32.3482 3.7C32.6842 3.892 32.9402 4.172 33.1162 4.54C33.2922 4.9 33.3802 5.336 33.3802 5.848V10H31.3162V6.556C31.3162 6.228 31.2922 5.948 31.2442 5.716C31.1962 5.484 31.1082 5.308 30.9802 5.188C30.8602 5.068 30.6842 5.008 30.4522 5.008C30.1162 5.008 29.8642 5.144 29.6962 5.416C29.5362 5.68 29.4562 6.06 29.4562 6.556V10H27.3922ZM34.7515 10V3.544H36.8155V10H34.7515ZM34.7155 2.824V1.288H36.8515V2.824H34.7155ZM38.3492 10V3.544H40.1972L40.2812 5.524L40.0292 5.476C40.0852 4.964 40.2092 4.556 40.4012 4.252C40.6012 3.948 40.8492 3.732 41.1452 3.604C41.4412 3.468 41.7692 3.4 42.1292 3.4C42.5852 3.4 42.9772 3.5 43.3052 3.7C43.6412 3.892 43.8972 4.172 44.0732 4.54C44.2492 4.9 44.3372 5.336 44.3372 5.848V10H42.2732V6.556C42.2732 6.228 42.2492 5.948 42.2012 5.716C42.1532 5.484 42.0652 5.308 41.9372 5.188C41.8172 5.068 41.6412 5.008 41.4092 5.008C41.0732 5.008 40.8212 5.144 40.6532 5.416C40.4932 5.68 40.4132 6.06 40.4132 6.556V10H38.3492ZM48.6863 11.944C48.0143 11.944 47.4623 11.868 47.0303 11.716C46.6063 11.564 46.2743 11.352 46.0343 11.08C45.7943 10.808 45.6223 10.5 45.5183 10.156L47.6303 10C47.6863 10.184 47.7903 10.324 47.9423 10.42C48.1023 10.524 48.3503 10.576 48.6863 10.576C49.0623 10.576 49.3503 10.48 49.5503 10.288C49.7503 10.096 49.8503 9.78 49.8503 9.34V8.764C49.6983 9.044 49.4543 9.272 49.1183 9.448C48.7823 9.624 48.4063 9.712 47.9902 9.712C47.4703 9.712 47.0063 9.584 46.5983 9.328C46.1983 9.072 45.8823 8.708 45.6503 8.236C45.4263 7.764 45.3143 7.208 45.3143 6.568C45.3143 5.952 45.4263 5.408 45.6503 4.936C45.8823 4.456 46.1983 4.08 46.5983 3.808C46.9983 3.536 47.4623 3.4 47.9902 3.4C48.4703 3.4 48.8663 3.504 49.1783 3.712C49.4903 3.92 49.7303 4.192 49.8983 4.528V3.544H51.9383V9.304C51.9383 9.896 51.7983 10.388 51.5182 10.78C51.2383 11.172 50.8543 11.464 50.3663 11.656C49.8783 11.848 49.3183 11.944 48.6863 11.944ZM48.6623 8.26C49.0383 8.26 49.3343 8.112 49.5503 7.816C49.7663 7.512 49.8743 7.092 49.8743 6.556C49.8743 6.196 49.8263 5.888 49.7303 5.632C49.6343 5.376 49.4943 5.18 49.3103 5.044C49.1343 4.908 48.9183 4.84 48.6623 4.84C48.2783 4.84 47.9783 4.996 47.7623 5.308C47.5463 5.62 47.4383 6.036 47.4383 6.556C47.4383 7.076 47.5503 7.492 47.7743 7.804C47.9983 8.108 48.2943 8.26 48.6623 8.26ZM0.816 22V13.48H4.344C5.392 13.48 6.212 13.736 6.804 14.248C7.404 14.752 7.704 15.444 7.704 16.324C7.704 16.908 7.568 17.416 7.296 17.848C7.032 18.272 6.648 18.6 6.144 18.832C5.64 19.064 5.04 19.18 4.344 19.18H2.904V22H0.816ZM2.904 17.464H4.2C4.624 17.464 4.956 17.368 5.196 17.176C5.444 16.984 5.568 16.7 5.568 16.324C5.568 15.956 5.448 15.676 5.208 15.484C4.968 15.284 4.632 15.184 4.2 15.184H2.904V17.464ZM11.6087 22.144C10.9287 22.144 10.3327 22.004 9.82069 21.724C9.31669 21.444 8.92069 21.052 8.63269 20.548C8.35269 20.044 8.21269 19.452 8.21269 18.772C8.21269 18.092 8.35269 17.5 8.63269 16.996C8.92069 16.492 9.31669 16.1 9.82069 15.82C10.3327 15.54 10.9287 15.4 11.6087 15.4C12.2887 15.4 12.8807 15.54 13.3847 15.82C13.8887 16.1 14.2807 16.492 14.5607 16.996C14.8487 17.5 14.9927 18.092 14.9927 18.772C14.9927 19.452 14.8487 20.044 14.5607 20.548C14.2807 21.052 13.8887 21.444 13.3847 21.724C12.8807 22.004 12.2887 22.144 11.6087 22.144ZM11.6087 20.62C12.0087 20.62 12.3167 20.46 12.5327 20.14C12.7567 19.82 12.8687 19.364 12.8687 18.772C12.8687 18.188 12.7567 17.736 12.5327 17.416C12.3167 17.088 12.0087 16.924 11.6087 16.924C11.2007 16.924 10.8847 17.088 10.6607 17.416C10.4447 17.736 10.3367 18.188 10.3367 18.772C10.3367 19.364 10.4447 19.82 10.6607 20.14C10.8847 20.46 11.2007 20.62 11.6087 20.62ZM16.0133 22V13.48H18.0773V17.92L20.2253 15.544H22.6733L20.1653 18.172L22.7333 22H20.5013L18.8453 19.312L18.0773 20.128V22H16.0133ZM26.1039 22.144C25.4319 22.144 24.8439 22.004 24.3399 21.724C23.8359 21.444 23.4439 21.052 23.1639 20.548C22.8839 20.044 22.7439 19.452 22.7439 18.772C22.7439 18.092 22.8839 17.504 23.1639 17.008C23.4439 16.504 23.8319 16.112 24.3279 15.832C24.8319 15.544 25.4199 15.4 26.0919 15.4C26.7639 15.4 27.3439 15.544 27.8319 15.832C28.3279 16.112 28.7079 16.516 28.9719 17.044C29.2359 17.572 29.3679 18.2 29.3679 18.928V19.312H24.8799C24.9039 19.76 25.0279 20.096 25.2519 20.32C25.4839 20.536 25.7799 20.644 26.1399 20.644C26.4119 20.644 26.6399 20.592 26.8239 20.488C27.0079 20.376 27.1399 20.196 27.2199 19.948L29.2839 20.068C29.1079 20.74 28.7359 21.256 28.1679 21.616C27.5999 21.968 26.9119 22.144 26.1039 22.144ZM24.8799 18.136H27.2799C27.2639 17.712 27.1479 17.396 26.9319 17.188C26.7159 16.972 26.4359 16.864 26.0919 16.864C25.7639 16.864 25.4879 16.976 25.2639 17.2C25.0479 17.424 24.9199 17.736 24.8799 18.136ZM30.3922 22V15.544H32.3722L32.4442 17.5L32.2882 17.476C32.4002 16.788 32.5882 16.296 32.8522 16C33.1162 15.696 33.4842 15.544 33.9562 15.544H34.5202V17.212H33.9442C33.6002 17.212 33.3202 17.252 33.1042 17.332C32.8882 17.412 32.7242 17.544 32.6122 17.728C32.5082 17.904 32.4562 18.148 32.4562 18.46V22H30.3922Z" fill="black"/>
<rect x="38.6447" y="12.5378" width="12.2637" height="14.0724" rx="1.5" transform="rotate(4.51227 38.6447 12.5378)" stroke="black"/>
<path d="M47.7755 20.7535C47.7331 21.2908 47.4879 21.7899 47.0938 22.141C46.6996 22.4921 46.1889 22.6666 45.6739 22.6259C45.3608 22.6018 45.0588 22.498 44.7941 22.3236L45.1042 23.6547C45.1153 23.6992 45.1157 23.7459 45.1054 23.7908C45.0952 23.8356 45.0746 23.8773 45.0455 23.9121C45.0174 23.947 44.9817 23.9743 44.9415 23.9921C44.9012 24.0098 44.8576 24.0173 44.8142 24.014L42.9764 23.869C42.933 23.8654 42.8911 23.8511 42.8542 23.8273C42.8173 23.8035 42.7863 23.7709 42.7639 23.7321C42.7407 23.6931 42.7269 23.6487 42.7238 23.6028C42.7208 23.5569 42.7285 23.5109 42.7464 23.4686L43.2615 22.2026C42.9727 22.3334 42.6581 22.3885 42.3451 22.3632C41.8301 22.3226 41.3531 22.0702 41.0189 21.6616C40.6847 21.253 40.5208 20.7216 40.5632 20.1844C40.7162 18.2455 44.284 16.2304 44.4339 16.144C44.4581 16.1315 44.4851 16.126 44.5119 16.1281C44.5388 16.1302 44.5645 16.1399 44.5865 16.156C44.7209 16.2649 47.9285 18.8147 47.7755 20.7535Z" fill="#262525"/>
</svg>
