<svg xmlns="http://www.w3.org/2000/svg" version="1.1" xmlns:xlink="http://www.w3.org/1999/xlink" xmlns:svgjs="http://svgjs.dev/svgjs" width="1000" height="1000"><style>
    #light-icon {
      display: inline;
    }
    #dark-icon {
      display: none;
    }

    @media (prefers-color-scheme: dark) {
      #light-icon {
        display: none;
      }
      #dark-icon {
        display: inline;
      }
    }
  </style><g id="light-icon"><svg xmlns="http://www.w3.org/2000/svg" version="1.1" xmlns:xlink="http://www.w3.org/1999/xlink" xmlns:svgjs="http://svgjs.dev/svgjs" width="1000" height="1000"><g><g transform="matrix(23.25581395348837,0,0,23.25581395348837,46.51162790697674,0)"><svg xmlns="http://www.w3.org/2000/svg" version="1.1" xmlns:xlink="http://www.w3.org/1999/xlink" xmlns:svgjs="http://svgjs.dev/svgjs" width="39" height="43"><svg width="39" height="43" viewBox="0 0 39 43" fill="none" xmlns="http://www.w3.org/2000/svg">
<path d="M39 23.8894C39 26.846 37.8938 29.6815 35.9246 31.7721C33.9555 33.8627 31.2848 35.0372 28.5 35.0372C26.8075 35.0405 25.14 34.6031 23.6438 33.7632L25.875 40.9098C25.9531 41.1485 25.9751 41.4038 25.9391 41.6536C25.9032 41.9033 25.8104 42.14 25.6687 42.3431C25.5321 42.5457 25.352 42.7109 25.1433 42.8251C24.9347 42.9394 24.7035 42.9993 24.4687 43H14.5312C14.2965 42.9993 14.0653 42.9394 13.8567 42.8251C13.648 42.7109 13.4679 42.5457 13.3313 42.3431C13.1896 42.14 13.0968 41.9033 13.0609 41.6536C13.0249 41.4038 13.0469 41.1485 13.125 40.9098L15.3562 33.7632C13.86 34.6031 12.1925 35.0405 10.5 35.0372C7.71523 35.0372 5.04451 33.8627 3.07538 31.7721C1.10625 29.6815 0 26.846 0 23.8894C0 13.2193 18.3187 0.658005 19.0875 0.120518C19.2123 0.0416389 19.3548 0 19.5 0C19.6452 0 19.7877 0.0416389 19.9125 0.120518C20.6812 0.658005 39 13.2193 39 23.8894Z" fill="#262525"></path>
</svg></svg></g></g></svg></g><g id="dark-icon"><svg xmlns="http://www.w3.org/2000/svg" version="1.1" xmlns:xlink="http://www.w3.org/1999/xlink" xmlns:svgjs="http://svgjs.dev/svgjs" width="1000" height="1000"><g><g transform="matrix(23.25581395348837,0,0,23.25581395348837,46.51162790697674,0)"><svg xmlns="http://www.w3.org/2000/svg" version="1.1" xmlns:xlink="http://www.w3.org/1999/xlink" xmlns:svgjs="http://svgjs.dev/svgjs" width="39" height="43"><svg width="39" height="43" viewBox="0 0 39 43" fill="none" xmlns="http://www.w3.org/2000/svg">
<path d="M39 23.8894C39 26.846 37.8938 29.6815 35.9246 31.7721C33.9555 33.8627 31.2848 35.0372 28.5 35.0372C26.8075 35.0405 25.14 34.6031 23.6438 33.7632L25.875 40.9098C25.9531 41.1485 25.9751 41.4038 25.9391 41.6536C25.9032 41.9033 25.8104 42.14 25.6687 42.3431C25.5321 42.5457 25.352 42.7109 25.1433 42.8251C24.9347 42.9394 24.7035 42.9993 24.4687 43H14.5312C14.2965 42.9993 14.0653 42.9394 13.8567 42.8251C13.648 42.7109 13.4679 42.5457 13.3313 42.3431C13.1896 42.14 13.0968 41.9033 13.0609 41.6536C13.0249 41.4038 13.0469 41.1485 13.125 40.9098L15.3563 33.7632C13.86 34.6031 12.1925 35.0405 10.5 35.0372C7.71523 35.0372 5.04451 33.8627 3.07538 31.7721C1.10625 29.6815 0 26.846 0 23.8894C0 13.2193 18.3188 0.658005 19.0875 0.120518C19.2123 0.0416389 19.3548 0 19.5 0C19.6452 0 19.7877 0.0416389 19.9125 0.120518C20.6812 0.658005 39 13.2193 39 23.8894Z" fill="white"></path>
</svg></svg></g></g></svg></g></svg>